<?xml version="1.0" encoding="UTF-8"?>
<svg id="Layer_1" data-name="Layer 1" xmlns="http://www.w3.org/2000/svg" viewBox="0 0 2066.86 1000">
  <defs>
    <style>
      .cls-1 {
        fill: #d7f1ff;
      }

      .cls-2 {
        fill: #ffb31a;
      }

      .cls-3 {
        fill: #f9f8f2;
      }
    </style>
  </defs>
  <path class="cls-2" d="M723.99,802.52c-86.21,0-167.09-41.44-217.56-111.16-1.93-2.66-1.24-6.41,1.47-8.28l47.15-32.56c2.64-1.83,6.22-1.16,8.12,1.43,37.55,51.15,97.24,81.51,160.82,81.51s123.28-30.36,160.83-81.51c1.9-2.59,5.48-3.25,8.12-1.43l47.15,32.56c2.7,1.87,3.39,5.62,1.47,8.28-50.47,69.72-131.35,111.16-217.56,111.16Z"/>
  <path class="cls-3" d="M727.24,376.21c-11.3,0-20.48-3.12-27.28-9.27-6.75-6.11-10.17-13.88-10.17-23.11s3.43-17.4,10.18-23.62c6.79-6.25,15.97-9.43,27.27-9.43s20.13,3.17,26.92,9.43c6.76,6.22,10.19,14.17,10.19,23.62s-3.42,17-10.18,23.11c-6.8,6.15-15.86,9.27-26.93,9.27Z"/>
  <rect class="cls-3" x="236.26" y="347.99" width="63.38" height="233.08" rx="2.75" ry="2.75"/>
  <path class="cls-3" d="M405.39,581.07c-23.75,0-41.77-5.92-53.56-17.6-11.78-11.67-17.76-29.52-17.76-53.04v-160.41c0-1.12.91-2.03,2.03-2.03h59.66c1.12,0,2.03.91,2.03,2.03v44.03h32.52c1.12,0,2.03.91,2.03,2.03v48.15c0,1.12-.91,2.03-2.03,2.03h-32.52v65.18c0,5.6,1.35,9.73,4.02,12.27,2.68,2.55,6.95,3.8,13.06,3.8h15.77c1.12,0,2.03.91,2.03,2.03v49.5c0,1.12-.91,2.03-2.03,2.03h-25.26Z"/>
  <path class="cls-3" d="M534.77,583.44c-14.77,0-28.35-3.91-40.34-11.62-12.01-7.71-21.63-18.95-28.59-33.43-6.98-14.51-10.52-31.67-10.52-51s3.54-36.42,10.52-50.83c6.96-14.36,16.58-25.55,28.59-33.26,12-7.71,25.57-11.62,40.34-11.62,12.78,0,23.93,2.56,33.15,7.61,9.2,5.04,16.42,11.92,21.45,20.45l2.79,4.73v-28.59c0-1,.82-1.82,1.82-1.82h59.74c1,0,1.82.82,1.82,1.82v183.38c0,1-.82,1.82-1.82,1.82h-59.74c-1,0-1.82-.82-1.82-1.82v-28.59l-2.79,4.73c-5.03,8.53-12.3,15.41-21.61,20.44-9.33,5.05-20.43,7.61-32.99,7.61ZM556.11,446.6c-10.31,0-19,3.63-25.81,10.8-6.79,7.14-10.23,17.23-10.23,29.99s3.44,22.62,10.22,29.98c6.81,7.4,15.5,11.16,25.83,11.16s18.72-3.69,25.64-10.97c6.91-7.26,10.41-17.41,10.41-30.17s-3.5-22.56-10.41-29.82c-6.93-7.28-15.56-10.97-25.64-10.97Z"/>
  <path class="cls-3" d="M668.15,671.85c-1,0-1.82-.82-1.82-1.82v-55.3c0-1,.82-1.82,1.82-1.82h10.9c6,0,10.44-1.27,13.2-3.78,2.8-2.55,4.22-6.68,4.22-12.29v-200.96c0-1,.82-1.82,1.82-1.82h59.74c1,0,1.82.82,1.82,1.82v205.32c0,23.52-5.95,41.37-17.68,53.05-11.73,11.68-29.67,17.6-53.3,17.6h-20.73Z"/>
  <path class="cls-3" d="M869.07,583.44c-14.77,0-28.35-3.91-40.34-11.62-12.01-7.71-21.63-18.95-28.59-33.43-6.98-14.51-10.52-31.67-10.52-51s3.54-36.42,10.52-50.83c6.96-14.36,16.58-25.55,28.59-33.26,12-7.71,25.58-11.62,40.34-11.62,12.78,0,23.93,2.56,33.15,7.61,9.2,5.04,16.42,11.92,21.45,20.45l2.79,4.73v-28.59c0-1,.82-1.82,1.82-1.82h59.75c1,0,1.82.82,1.82,1.82v183.38c0,1-.82,1.82-1.82,1.82h-59.75c-1,0-1.82-.82-1.82-1.82v-28.59l-2.79,4.73c-5.03,8.53-12.3,15.41-21.61,20.44-9.33,5.05-20.43,7.61-32.99,7.61ZM890.41,446.6c-10.31,0-19,3.63-25.81,10.8-6.79,7.14-10.23,17.23-10.23,29.99s3.44,22.62,10.22,29.98c6.81,7.4,15.5,11.16,25.83,11.16s18.72-3.69,25.64-10.97c6.91-7.26,10.41-17.41,10.41-30.17s-3.5-22.56-10.41-29.82c-6.93-7.28-15.56-10.97-25.64-10.97Z"/>
  <path class="cls-3" d="M1030.74,377.48c-.76,0-1.59-.61-1.59-1.59v-35.65c0-.62.37-1.19.94-1.45l60.54-27.37c.21-.1.43-.14.66-.14.76,0,1.59.61,1.59,1.59v39.28c0,.66-.4,1.24-1.01,1.48l-60.55,23.73c-.19.07-.39.11-.58.11Z"/>
  <rect class="cls-3" x="1029.15" y="394.06" width="63.72" height="187.02" rx="1.59" ry="1.59"/>
  <path class="cls-1" d="M1260.14,461.51l-5-14.19h-30.5l-5,14.19h-9.77l24.17-67.56h11.78l24.17,67.56h-9.86ZM1227.14,440.03h25.51l-12.7-36.3-12.81,36.3Z"/>
  <path class="cls-1" d="M1326.59,462.41c-5.06,0-9.6-1.15-13.49-3.41-3.88-2.26-6.96-5.49-9.17-9.6-2.21-4.13-3.33-9-3.33-14.47s1.12-10.34,3.33-14.47c2.2-4.11,5.28-7.32,9.16-9.55,3.89-2.23,8.43-3.37,13.49-3.37,6.41,0,11.78,1.53,15.95,4.56,3.83,2.78,6.56,6.73,8.11,11.73h-10.28c-1.08-2.61-2.73-4.7-4.91-6.22-2.36-1.64-5.34-2.48-8.87-2.48-4.95,0-8.96,1.78-11.91,5.31-2.91,3.47-4.38,8.34-4.38,14.48s1.47,11.03,4.38,14.53c2.95,3.56,6.96,5.36,11.91,5.36,6.78,0,11.41-2.92,13.78-8.69h10.25c-1.61,4.77-4.38,8.65-8.24,11.54-4.2,3.15-9.51,4.75-15.79,4.75Z"/>
  <path class="cls-1" d="M1361.97,461.51v-53.07h9.39v53.07h-9.39ZM1366.76,399.15c-1.81,0-3.28-.59-4.49-1.81-1.21-1.22-1.81-2.68-1.81-4.49s.59-3.27,1.81-4.49c1.22-1.21,2.68-1.81,4.49-1.81s3.17.59,4.39,1.81c1.21,1.21,1.81,2.68,1.81,4.49s-.59,3.27-1.81,4.49c-1.21,1.22-2.65,1.81-4.39,1.81Z"/>
  <path class="cls-1" d="M1407.14,462.41c-4.59,0-8.84-1.18-12.62-3.5-3.79-2.32-6.83-5.62-9.03-9.81-2.21-4.2-3.33-9.03-3.33-14.37s1.12-10.12,3.33-14.22c2.2-4.08,5.24-7.3,9.03-9.56,3.79-2.26,8.07-3.41,12.73-3.41,3.44,0,6.88.76,10.24,2.26,3.33,1.49,6.01,3.5,7.97,5.96l1.78,2.24v-28.45h9.49v71.95h-9.49v-10.47l-1.82,2.6c-1.77,2.52-4.25,4.64-7.39,6.28-3.14,1.65-6.8,2.48-10.88,2.48ZM1409.54,415.44c-3.09,0-6.02.77-8.69,2.28-2.68,1.52-4.88,3.76-6.52,6.67-1.64,2.9-2.48,6.38-2.48,10.34s.83,7.48,2.47,10.47c1.64,3.01,3.85,5.34,6.57,6.93,2.71,1.58,5.62,2.39,8.65,2.39s6.02-.79,8.7-2.33c2.68-1.55,4.87-3.85,6.52-6.83,1.64-2.97,2.47-6.48,2.47-10.43s-.83-7.44-2.48-10.38c-1.65-2.94-3.84-5.22-6.52-6.77-2.68-1.55-5.6-2.33-8.7-2.33Z"/>
  <path class="cls-1" d="M1472.3,462.41c-4.52,0-8.72-1.18-12.47-3.5-3.76-2.32-6.78-5.62-8.99-9.81-2.21-4.2-3.33-9.03-3.33-14.37s1.12-10.12,3.33-14.22c2.2-4.08,5.24-7.3,9.03-9.56,3.79-2.26,8.04-3.41,12.63-3.41,4.15,0,7.81.82,10.88,2.43,3.08,1.62,5.58,3.66,7.42,6.07l1.79,2.35v-9.95h9.49v53.07h-9.49v-10.21l-1.8,2.42c-1.83,2.47-4.38,4.55-7.55,6.21-3.17,1.65-6.85,2.49-10.93,2.49ZM1474.9,415.44c-3.09,0-6.02.77-8.69,2.28-2.68,1.52-4.88,3.76-6.52,6.67-1.64,2.9-2.48,6.38-2.48,10.34s.83,7.48,2.47,10.47c1.64,3.01,3.85,5.34,6.57,6.93,2.71,1.58,5.62,2.39,8.65,2.39s6.02-.79,8.7-2.33c2.68-1.55,4.87-3.85,6.52-6.83,1.64-2.97,2.47-6.48,2.47-10.43s-.83-7.44-2.48-10.38c-1.65-2.94-3.84-5.22-6.52-6.77-2.68-1.55-5.6-2.33-8.7-2.33Z"/>
  <path class="cls-1" d="M1537.86,462.41c-4.59,0-8.84-1.18-12.62-3.5-3.79-2.32-6.83-5.62-9.03-9.81-2.21-4.2-3.33-9.03-3.33-14.37s1.12-10.12,3.33-14.22c2.2-4.08,5.24-7.3,9.03-9.56,3.79-2.26,8.07-3.41,12.73-3.41,3.44,0,6.88.76,10.24,2.26,3.33,1.49,6.01,3.5,7.97,5.96l1.78,2.24v-28.45h9.49v71.95h-9.49v-10.47l-1.82,2.6c-1.77,2.52-4.25,4.64-7.39,6.28-3.14,1.65-6.8,2.48-10.88,2.48ZM1540.26,415.44c-3.09,0-6.02.77-8.69,2.28-2.68,1.52-4.88,3.76-6.52,6.67-1.64,2.9-2.48,6.38-2.48,10.34s.83,7.48,2.47,10.47c1.64,3.01,3.85,5.34,6.57,6.93,2.71,1.58,5.62,2.39,8.65,2.39s6.02-.79,8.7-2.33c2.68-1.55,4.87-3.85,6.52-6.83,1.64-2.97,2.47-6.48,2.47-10.43s-.83-7.44-2.48-10.38c-1.65-2.94-3.84-5.22-6.52-6.77-2.68-1.55-5.6-2.33-8.7-2.33Z"/>
  <path class="cls-1" d="M1604.72,462.41c-5.06,0-9.66-1.15-13.65-3.42-3.98-2.26-7.15-5.49-9.41-9.61-2.27-4.13-3.42-8.99-3.42-14.46s1.12-10.34,3.33-14.47c2.2-4.11,5.33-7.32,9.3-9.54,3.99-2.24,8.65-3.37,13.85-3.37s9.51,1.1,13.41,3.27c3.88,2.16,6.94,5.24,9.11,9.15,2.17,3.93,3.27,8.53,3.27,13.66,0,1.66-.09,3.2-.27,4.6h-42.29l.08,1.08c.35,4.64,2.11,8.43,5.22,11.26,3.11,2.82,6.96,4.26,11.46,4.26,6.29,0,10.86-2.59,13.6-7.7h10.26c-1.67,4.26-4.43,7.83-8.22,10.64-4.17,3.09-9.43,4.65-15.65,4.65ZM1604.22,415.14c-4.17,0-7.79,1.35-10.76,4-2.97,2.65-4.76,6.28-5.32,10.77l-.14,1.12h32.63l-.02-1.02c-.07-4.47-1.7-8.12-4.84-10.83-3.11-2.68-6.99-4.04-11.55-4.04Z"/>
  <path class="cls-1" d="M1522.32,607.62v-36.25l-1.81,2.48c-1.7,2.33-4.2,4.34-7.44,5.99-3.24,1.65-6.99,2.49-11.14,2.49-4.52,0-8.7-1.18-12.41-3.5-3.73-2.33-6.74-5.63-8.94-9.81-2.21-4.2-3.33-9.03-3.33-14.37s1.12-10.12,3.33-14.22c2.2-4.08,5.24-7.3,9.03-9.56,3.79-2.26,8.07-3.41,12.73-3.41,4.08,0,7.74.84,10.88,2.48,3.15,1.65,5.6,3.67,7.3,6l1.81,2.48v-10.06h9.49v79.25h-9.49ZM1504.63,535.37c-3.09,0-6.01.77-8.69,2.28-2.68,1.52-4.88,3.76-6.52,6.67-1.64,2.9-2.48,6.38-2.48,10.34s.83,7.48,2.47,10.47c1.64,3.01,3.85,5.34,6.57,6.93,2.71,1.58,5.62,2.39,8.65,2.39s6.02-.79,8.7-2.33c2.68-1.55,4.87-3.85,6.52-6.83,1.64-2.97,2.47-6.48,2.47-10.43s-.83-7.44-2.48-10.38c-1.65-2.94-3.84-5.22-6.52-6.77-2.68-1.55-5.6-2.33-8.7-2.33Z"/>
  <path class="cls-1" d="M1567.59,582.24c-4.15,0-7.91-.87-11.18-2.58-3.24-1.7-5.83-4.25-7.69-7.6-1.87-3.36-2.82-7.5-2.82-12.31v-31.38h9.29v29.68c0,5.17,1.33,9.22,3.97,12.03,2.65,2.83,6.29,4.26,10.82,4.26s8.19-1.43,10.87-4.26c2.67-2.81,4.02-6.86,4.02-12.03v-29.68h9.39v53.07h-9.39v-8.36l-1.78,2.24c-1.69,2.13-3.94,3.83-6.67,5.06-2.75,1.24-5.73,1.86-8.84,1.86Z"/>
  <path class="cls-1" d="M1608.86,581.44v-53.07h9.39v53.07h-9.39ZM1613.66,519.08c-1.81,0-3.27-.59-4.49-1.81-1.21-1.22-1.81-2.68-1.81-4.49s.59-3.27,1.81-4.49c1.22-1.21,2.68-1.81,4.49-1.81s3.17.59,4.39,1.81c1.21,1.21,1.81,2.68,1.81,4.49s-.59,3.28-1.81,4.49c-1.22,1.21-2.65,1.81-4.39,1.81Z"/>
  <path class="cls-1" d="M1632.85,581.44v-53.07h9.39v10.63l1.86-3.13c1.57-2.63,3.68-4.71,6.28-6.19,2.36-1.33,5.16-2.07,8.35-2.2v9.77h-1.9c-4.71,0-8.36,1.24-10.85,3.69-2.49,2.45-3.75,6.66-3.75,12.51v27.98h-9.39Z"/>
  <path class="cls-1" d="M1668.83,581.44v-53.07h9.39v53.07h-9.39ZM1673.62,519.08c-1.81,0-3.27-.59-4.49-1.81-1.21-1.22-1.81-2.68-1.81-4.49s.59-3.27,1.81-4.49c1.22-1.21,2.68-1.81,4.49-1.81s3.17.59,4.39,1.81c1.21,1.21,1.81,2.68,1.81,4.49s-.59,3.28-1.81,4.49c-1.22,1.21-2.65,1.81-4.39,1.81Z"/>
  <path class="cls-1" d="M1714,582.34c-4.59,0-8.83-1.18-12.62-3.5-3.79-2.32-6.83-5.62-9.03-9.81-2.21-4.2-3.33-9.03-3.33-14.37s1.12-10.12,3.33-14.22c2.2-4.08,5.24-7.3,9.03-9.56,3.79-2.26,8.07-3.41,12.73-3.41,3.44,0,6.88.76,10.24,2.26,3.33,1.49,6.01,3.5,7.97,5.96l1.78,2.24v-28.45h9.49v71.95h-9.49v-10.47l-1.82,2.6c-1.76,2.52-4.25,4.64-7.39,6.28-3.14,1.65-6.8,2.48-10.88,2.48ZM1716.4,535.37c-3.09,0-6.01.77-8.69,2.28-2.68,1.52-4.88,3.76-6.52,6.67-1.64,2.9-2.48,6.38-2.48,10.34s.83,7.48,2.47,10.47c1.64,3.01,3.85,5.34,6.57,6.93,2.71,1.58,5.62,2.39,8.65,2.39s6.02-.79,8.7-2.33c2.68-1.55,4.87-3.85,6.52-6.83,1.64-2.97,2.47-6.48,2.47-10.43s-.83-7.44-2.48-10.38c-1.65-2.94-3.84-5.22-6.52-6.77-2.68-1.55-5.6-2.33-8.7-2.33Z"/>
  <path class="cls-1" d="M1779.16,582.34c-4.52,0-8.72-1.18-12.47-3.5-3.76-2.32-6.78-5.62-8.99-9.81-2.21-4.2-3.33-9.03-3.33-14.37s1.12-10.12,3.33-14.22c2.2-4.08,5.24-7.3,9.03-9.56,3.79-2.26,8.04-3.41,12.63-3.41,4.15,0,7.81.82,10.88,2.43,3.08,1.62,5.58,3.66,7.42,6.07l1.79,2.35v-9.95h9.49v53.07h-9.49v-10.21l-1.8,2.42c-1.83,2.47-4.38,4.55-7.55,6.21-3.17,1.65-6.85,2.49-10.93,2.49ZM1781.76,535.37c-3.09,0-6.01.77-8.69,2.28-2.68,1.52-4.88,3.76-6.52,6.67-1.64,2.9-2.48,6.38-2.48,10.34s.83,7.48,2.47,10.47c1.64,3.01,3.85,5.34,6.57,6.93,2.71,1.58,5.62,2.39,8.65,2.39s6.02-.79,8.7-2.33c2.68-1.55,4.87-3.85,6.52-6.83,1.64-2.97,2.47-6.48,2.47-10.43s-.83-7.44-2.48-10.38c-1.65-2.94-3.84-5.22-6.52-6.77-2.68-1.55-5.6-2.33-8.7-2.33Z"/>
  <path class="cls-1" d="M1292.65,581.22v-29.68c0-5.15-1.33-9.19-3.96-11.99-2.64-2.82-6.28-4.25-10.79-4.25s-8.16,1.43-10.84,4.25c-2.66,2.8-4.01,6.84-4.01,12v29.68h-9.26v-29.68c0-5.15-1.33-9.19-3.96-11.99-2.64-2.82-6.28-4.25-10.79-4.25s-8.16,1.43-10.84,4.25c-2.66,2.8-4.01,6.84-4.01,12v29.68h-9.36v-52.89h9.36v8.06l1.77-2.15c1.75-2.13,4.01-3.81,6.7-5,2.71-1.2,5.66-1.81,8.76-1.81,4.19,0,7.99.9,11.28,2.67,3.26,1.76,5.8,4.33,7.56,7.66l.91,1.72.87-1.74c1.56-3.12,4.04-5.64,7.36-7.49,3.35-1.87,7.01-2.81,10.87-2.81,4.13,0,7.88.87,11.14,2.58,3.23,1.69,5.8,4.24,7.66,7.57,1.87,3.36,2.81,7.48,2.81,12.26v31.38h-9.26Z"/>
  <path class="cls-1" d="M1339.27,582.12c-4.51,0-8.69-1.17-12.42-3.49-3.75-2.32-6.76-5.61-8.96-9.78-2.2-4.18-3.32-9-3.32-14.33s1.12-10.09,3.32-14.17c2.19-4.07,5.22-7.27,9-9.53,3.78-2.25,8.01-3.4,12.59-3.4,4.13,0,7.78.82,10.84,2.43,3.07,1.62,5.56,3.65,7.39,6.05l1.79,2.35v-9.93h9.46v52.89h-9.46v-10.19l-1.8,2.42c-1.83,2.46-4.36,4.54-7.53,6.18-3.16,1.64-6.83,2.48-10.9,2.48ZM1341.86,535.3c-3.08,0-6,.76-8.66,2.27-2.67,1.51-4.86,3.75-6.5,6.65-1.64,2.9-2.47,6.36-2.47,10.3s.83,7.45,2.46,10.44c1.64,3,3.84,5.33,6.55,6.91,2.7,1.58,5.6,2.38,8.62,2.38s6-.78,8.67-2.33c2.67-1.54,4.86-3.84,6.5-6.81,1.64-2.96,2.47-6.46,2.47-10.4s-.83-7.42-2.47-10.35c-1.64-2.94-3.83-5.21-6.5-6.75-2.67-1.54-5.58-2.33-8.67-2.33Z"/>
  <path class="cls-1" d="M1385.89,581.22v-52.89h9.36v52.89h-9.36ZM1390.67,519.06c-1.8,0-3.26-.59-4.47-1.8-1.21-1.21-1.8-2.67-1.8-4.47s.59-3.26,1.8-4.47c1.21-1.21,2.67-1.8,4.47-1.8s3.16.59,4.37,1.8c1.21,1.21,1.8,2.67,1.8,4.47s-.59,3.26-1.8,4.47c-1.21,1.21-2.64,1.8-4.37,1.8Z"/>
  <polygon class="cls-1" points="1440.13 581.22 1427.7 561.69 1416 581.22 1406.57 581.22 1423.64 555.24 1406.54 528.34 1417.02 528.34 1429.45 547.87 1441.14 528.34 1450.58 528.34 1433.51 554.42 1450.61 581.22 1440.13 581.22"/>
</svg>